<svg width="110" height="40" viewBox="0 0 110 40" fill="none" xmlns="http://www.w3.org/2000/svg">
<rect width="40" height="40" rx="20" fill="#4C68D5"/>
<path d="M24.4769 11.3485L18.204 7.55509C17.6119 7.19292 16.9388 7.0015 16.2532 7.00031C14.2094 7.00031 12.3348 8.71225 12.3348 11.105V25.3073L24.4769 17.9669C26.9083 16.4947 26.9083 12.82 24.4769 11.3485ZM15.8484 18.448V10.8679L22.1163 14.6567L15.8484 18.448Z" fill="white"/>
<path d="M27.8489 32.9844C27.8489 33.0273 15.9908 32.966 15.9908 32.966L14.9434 32.8425C13.2467 32.644 11.9443 31.1233 12.002 29.3346C12.002 29.2917 12.0057 29.2519 12.0081 29.2103C12.0547 28.4365 12.3261 27.6961 12.7858 27.0885C12.9725 26.8461 13.2009 26.6425 13.4592 26.4882L22.4782 21.0725C24.3414 19.9535 25.8931 19.562 26.6999 17.5341C26.9974 16.7757 27.126 15.9562 27.0757 15.1379L27.0446 14.5865L27.9651 19.9204C28.083 20.8264 27.9013 21.7537 27.4211 22.5169C27.1326 22.9785 26.7475 23.3653 26.2951 23.6479L15.8295 28.8943C15.8191 28.9006 15.809 28.9074 15.7993 28.9149C15.5127 29.1293 15.6896 29.6069 16.0403 29.5867L24.7515 29.6403C26.4433 29.5417 27.8526 31.2112 27.8489 32.9844Z" fill="white"/>
<path d="M58.84 27.8C57.7733 27.8 56.81 27.6133 55.95 27.24C55.0967 26.86 54.3933 26.32 53.84 25.62C53.2933 24.9133 52.9467 24.0733 52.8 23.1L55.64 22.68C55.84 23.5067 56.2533 24.1433 56.88 24.59C57.5067 25.0367 58.22 25.26 59.02 25.26C59.4667 25.26 59.9 25.19 60.32 25.05C60.74 24.91 61.0833 24.7033 61.35 24.43C61.6233 24.1567 61.76 23.82 61.76 23.42C61.76 23.2733 61.7367 23.1333 61.69 23C61.65 22.86 61.58 22.73 61.48 22.61C61.38 22.49 61.2367 22.3767 61.05 22.27C60.87 22.1633 60.64 22.0667 60.36 21.98L56.62 20.88C56.34 20.8 56.0133 20.6867 55.64 20.54C55.2733 20.3933 54.9167 20.1833 54.57 19.91C54.2233 19.6367 53.9333 19.2767 53.7 18.83C53.4733 18.3767 53.36 17.8067 53.36 17.12C53.36 16.1533 53.6033 15.35 54.09 14.71C54.5767 14.07 55.2267 13.5933 56.04 13.28C56.8533 12.9667 57.7533 12.8133 58.74 12.82C59.7333 12.8333 60.62 13.0033 61.4 13.33C62.18 13.6567 62.8333 14.1333 63.36 14.76C63.8867 15.38 64.2667 16.14 64.5 17.04L61.56 17.54C61.4533 17.0733 61.2567 16.68 60.97 16.36C60.6833 16.04 60.34 15.7967 59.94 15.63C59.5467 15.4633 59.1333 15.3733 58.7 15.36C58.2733 15.3467 57.87 15.4067 57.49 15.54C57.1167 15.6667 56.81 15.8533 56.57 16.1C56.3367 16.3467 56.22 16.64 56.22 16.98C56.22 17.2933 56.3167 17.55 56.51 17.75C56.7033 17.9433 56.9467 18.1 57.24 18.22C57.5333 18.34 57.8333 18.44 58.14 18.52L60.64 19.2C61.0133 19.3 61.4267 19.4333 61.88 19.6C62.3333 19.76 62.7667 19.9867 63.18 20.28C63.6 20.5667 63.9433 20.9467 64.21 21.42C64.4833 21.8933 64.62 22.4933 64.62 23.22C64.62 23.9933 64.4567 24.67 64.13 25.25C63.81 25.8233 63.3767 26.3 62.83 26.68C62.2833 27.0533 61.6633 27.3333 60.97 27.52C60.2833 27.7067 59.5733 27.8 58.84 27.8ZM70.978 27.8C69.8913 27.8 68.938 27.5567 68.118 27.07C67.298 26.5833 66.658 25.9133 66.198 25.06C65.7446 24.2 65.518 23.2133 65.518 22.1C65.518 20.9733 65.7513 19.9833 66.218 19.13C66.6846 18.27 67.328 17.6 68.148 17.12C68.968 16.64 69.9113 16.4 70.978 16.4C72.0646 16.4 73.018 16.6433 73.838 17.13C74.6646 17.6167 75.308 18.29 75.768 19.15C76.228 20.0033 76.458 20.9867 76.458 22.1C76.458 23.22 76.2246 24.21 75.758 25.07C75.298 25.9233 74.6546 26.5933 73.828 27.08C73.008 27.56 72.058 27.8 70.978 27.8ZM70.978 25.26C71.8513 25.26 72.5013 24.9667 72.928 24.38C73.3613 23.7867 73.578 23.0267 73.578 22.1C73.578 21.14 73.358 20.3733 72.918 19.8C72.4846 19.2267 71.838 18.94 70.978 18.94C70.3846 18.94 69.898 19.0733 69.518 19.34C69.138 19.6067 68.8546 19.9767 68.668 20.45C68.488 20.9233 68.398 21.4733 68.398 22.1C68.398 23.0667 68.6146 23.8367 69.048 24.41C69.488 24.9767 70.1313 25.26 70.978 25.26ZM82.717 27.8C81.597 27.8 80.637 27.55 79.837 27.05C79.037 26.55 78.4237 25.87 77.997 25.01C77.5704 24.15 77.357 23.18 77.357 22.1C77.357 21.0067 77.577 20.03 78.017 19.17C78.4637 18.31 79.0904 17.6333 79.897 17.14C80.7037 16.6467 81.657 16.4 82.757 16.4C84.0304 16.4 85.097 16.7233 85.957 17.37C86.8237 18.01 87.377 18.8867 87.617 20L84.897 20.72C84.737 20.16 84.457 19.7233 84.057 19.41C83.6637 19.0967 83.217 18.94 82.717 18.94C82.1437 18.94 81.6737 19.08 81.307 19.36C80.9404 19.6333 80.6704 20.01 80.497 20.49C80.3237 20.9633 80.237 21.5 80.237 22.1C80.237 23.04 80.4437 23.8033 80.857 24.39C81.277 24.97 81.897 25.26 82.717 25.26C83.3304 25.26 83.797 25.12 84.117 24.84C84.437 24.56 84.677 24.16 84.837 23.64L87.617 24.22C87.3104 25.3667 86.7304 26.25 85.877 26.87C85.0237 27.49 83.9704 27.8 82.717 27.8ZM88.8242 15.2V12.8H91.5442V15.2H88.8242ZM88.8242 27.5V16.7H91.5442V27.5H88.8242ZM96.8422 27.8C96.0689 27.8 95.4122 27.6533 94.8722 27.36C94.3389 27.06 93.9322 26.6633 93.6522 26.17C93.3789 25.67 93.2422 25.12 93.2422 24.52C93.2422 24.02 93.3189 23.5633 93.4722 23.15C93.6255 22.7367 93.8722 22.3733 94.2122 22.06C94.5589 21.74 95.0222 21.4733 95.6022 21.26C96.0022 21.1133 96.4789 20.9833 97.0322 20.87C97.5855 20.7567 98.2122 20.65 98.9122 20.55C99.6122 20.4433 100.382 20.3267 101.222 20.2L100.242 20.74C100.242 20.1 100.089 19.63 99.7822 19.33C99.4755 19.03 98.9622 18.88 98.2422 18.88C97.8422 18.88 97.4255 18.9767 96.9922 19.17C96.5589 19.3633 96.2555 19.7067 96.0822 20.2L93.6222 19.42C93.8955 18.5267 94.4089 17.8 95.1622 17.24C95.9155 16.68 96.9422 16.4 98.2422 16.4C99.1955 16.4 100.042 16.5467 100.782 16.84C101.522 17.1333 102.082 17.64 102.462 18.36C102.676 18.76 102.802 19.16 102.842 19.56C102.882 19.96 102.902 20.4067 102.902 20.9V27.5H100.522V25.28L100.862 25.74C100.336 26.4667 99.7655 26.9933 99.1522 27.32C98.5455 27.64 97.7755 27.8 96.8422 27.8ZM97.4222 25.66C97.9222 25.66 98.3422 25.5733 98.6822 25.4C99.0289 25.22 99.3022 25.0167 99.5022 24.79C99.7089 24.5633 99.8489 24.3733 99.9222 24.22C100.062 23.9267 100.142 23.5867 100.162 23.2C100.189 22.8067 100.202 22.48 100.202 22.22L101.002 22.42C100.196 22.5533 99.5422 22.6667 99.0422 22.76C98.5422 22.8467 98.1389 22.9267 97.8322 23C97.5255 23.0733 97.2555 23.1533 97.0222 23.24C96.7555 23.3467 96.5389 23.4633 96.3722 23.59C96.2122 23.71 96.0922 23.8433 96.0122 23.99C95.9389 24.1367 95.9022 24.3 95.9022 24.48C95.9022 24.7267 95.9622 24.94 96.0822 25.12C96.2089 25.2933 96.3855 25.4267 96.6122 25.52C96.8389 25.6133 97.1089 25.66 97.4222 25.66ZM105.002 27.5V12.8H107.722V27.5H105.002Z" fill="#0C1024"/>
</svg>
