<?xml version="1.0" encoding="utf-8"?>
<svg xmlns="http://www.w3.org/2000/svg" viewBox="0 0 500 500">
  <rect width="491.365" height="487.653" rx="253.444" x="3.8" y="6.413" style="stroke-width: 1;" fill="#4C68D5" ry="253.444"/>
  <path d="M 354.313 159.901 L 246.733 118.94 C 236.583 115.03 225.04 112.966 213.277 112.957 C 178.224 112.957 146.089 131.442 146.089 157.267 L 146.089 310.608 L 354.313 231.351 C 396.004 215.459 396.004 175.782 354.313 159.901 Z M 206.332 236.538 L 206.332 154.706 L 313.824 195.614 L 206.332 236.538 Z" fill="white" style="stroke-width: 1; transform-box: fill-box; transform-origin: 50.9673% 71.7289%;" transform="matrix(-0.016535, 0.999863, -0.999863, -0.016535, -0.000004, 0.00003)"/>
  <path d="M 410.866 392.155 C 410.866 392.611 207.514 391.945 207.514 391.945 L 189.542 390.623 C 160.458 388.475 138.112 372.063 139.109 352.743 C 139.109 352.279 139.173 351.848 139.208 351.407 C 140.016 343.049 144.661 335.048 152.55 328.495 C 155.758 325.873 159.671 323.681 164.094 322.018 L 318.763 263.541 C 350.706 251.46 377.324 247.23 391.163 225.332 C 396.259 217.149 398.471 208.305 397.611 199.464 L 397.08 193.514 L 412.858 251.104 C 414.88 260.886 411.76 270.894 403.528 279.133 C 398.589 284.12 391.988 288.297 384.22 291.344 L 204.755 347.992 C 204.565 348.058 204.393 348.133 204.218 348.21 C 199.317 350.529 202.352 355.675 208.357 355.466 L 357.758 356.045 C 386.759 354.979 410.937 373.013 410.866 392.155 Z" fill="white" style="stroke-width: 1; transform-box: fill-box; transform-origin: 46.5786% 30.1175%;" transform="matrix(-0.016535, 0.999863, -0.999863, -0.016535, 0.000026, 0.000025)"/>
</svg>