<?xml version="1.0" encoding="utf-8"?>
<svg width="110" height="40" xmlns="http://www.w3.org/2000/svg">
  <g class="layer">
    <title>Layer 1</title>
    <rect fill="#4C68D5" height="40" id="svg_1" rx="20" width="40" x="35.25" y="0"/>
    <path d="M 60.269 12.158 L 53.989 8.368 C 53.399 7.998 52.729 7.808 52.039 7.808 C 49.999 7.808 48.119 9.518 48.119 11.918 L 48.119 26.118 L 60.269 18.778 C 62.699 17.298 62.699 13.628 60.269 12.158 Z M 51.639 19.258 L 51.639 11.678 L 57.909 15.468 L 51.639 19.258 Z" fill="white" id="svg_2" style="transform-origin: 55.789px 20.808px;" transform="matrix(-0.024342, 0.999704, -0.999704, -0.024342, -0.000003, 0.000001)"/>
    <path d="M 63.639 33.788 C 63.639 33.838 51.779 33.778 51.779 33.778 L 50.729 33.648 C 49.039 33.448 47.729 31.928 47.789 30.138 C 47.789 30.098 47.799 30.058 47.799 30.018 C 47.839 29.248 48.119 28.508 48.579 27.898 C 48.759 27.658 48.989 27.448 49.249 27.298 L 58.269 21.878 C 60.129 20.758 61.679 20.368 62.489 18.338 C 62.789 17.588 62.919 16.768 62.869 15.948 L 62.829 15.398 L 63.759 20.728 C 63.869 21.638 63.689 22.558 63.209 23.328 C 62.919 23.788 62.539 24.178 62.089 24.458 L 51.619 29.698 C 51.609 29.708 51.599 29.718 51.589 29.718 C 51.299 29.938 51.479 30.418 51.829 30.398 L 60.539 30.448 C 62.229 30.348 63.639 32.018 63.639 33.788 Z" fill="white" id="svg_3" style="transform-origin: 55.789px 20.808px;" transform="matrix(-0.024342, 0.999704, -0.999704, -0.024342, -0.000003, 0.000001)"/>
  </g>
</svg>